<?xml version="1.0" encoding="UTF-8"?><svg id="Layer_1" xmlns="http://www.w3.org/2000/svg" viewBox="0 0 30 30"><defs><style>.cls-1{fill:#58667e;}</style></defs><path class="cls-1" d="M19.961,17.45v-1.084c0-.136-.111-.247-.247-.247h-1.865l.432-2.109h1.433c.136,0,.247-.11,.247-.247v-1.076c0-.137-.111-.247-.247-.247h-1.107l.576-2.681c.016-.073-.002-.149-.049-.207-.046-.058-.118-.092-.192-.092h-1.076c-.117,0-.217,.081-.241,.195l-.599,2.786h-2.491l.575-2.682c.016-.073-.002-.149-.049-.207-.046-.058-.118-.092-.192-.092h-1.059c-.117,0-.217,.081-.241,.195l-.599,2.786h-2.197c-.136,0-.247,.11-.247,.247v1.076c0,.137,.111,.247,.247,.247h1.88l-.439,2.109h-1.441c-.136,0-.247,.111-.247,.247v1.084c0,.136,.111,.247,.247,.247h1.107l-.561,2.658c-.015,.073,.003,.149,.049,.207,.047,.058,.118,.092,.192,.092h1.076c.117,0,.217-.082,.241-.196l.584-2.76h2.498l-.576,2.657c-.016,.072,.002,.149,.049,.207,.046,.058,.118,.092,.192,.092h1.084c.117,0,.217-.081,.241-.195l.592-2.761h2.173c.136,0,.247-.111,.247-.247Zm-6.184-1.331l.439-2.109h2.501l-.432,2.109h-2.508Z"/><g><path class="cls-1" d="M10.276,21.426h-.255c-.354,0-.617-.035-.782-.103-.13-.055-.216-.156-.272-.321-.07-.203-.105-.543-.105-1.009v-1.219c0-.761-.056-1.392-.167-1.877-.116-.505-.315-.924-.591-1.247-.182-.211-.411-.403-.682-.573,.297-.178,.542-.389,.728-.631,.269-.351,.459-.786,.563-1.296,.099-.487,.149-1.097,.149-1.814v-1.194c0-.466,.035-.807,.106-1.014,.056-.168,.142-.272,.27-.329,.111-.049,.338-.106,.783-.106h.255c.141,0,.256-.115,.256-.256v-1.301c0-.142-.115-.256-.256-.256h-.462c-.19,0-.356,.003-.496,.008-.151,.007-.31,.028-.477,.064-.171,.038-.342,.097-.502,.174-.324,.149-.592,.366-.799,.645-.201,.272-.35,.615-.443,1.022-.089,.392-.134,.846-.134,1.35,0,1.134-.02,1.96-.06,2.454-.038,.457-.165,.834-.379,1.119-.194,.26-.543,.402-1.036,.42-.137,.006-.246,.119-.246,.256v1.351c0,.138,.109,.251,.246,.256,.493,.019,.841,.159,1.037,.417,.212,.282,.34,.657,.378,1.111,.04,.491,.06,1.315,.06,2.45,0,.504,.045,.959,.134,1.354,.093,.41,.243,.758,.447,1.033,.209,.285,.477,.503,.793,.646,.24,.112,.455,.176,.653,.195,.175,.017,.45,.026,.823,.026h.462c.141,0,.256-.115,.256-.256v-1.293c0-.141-.115-.256-.256-.256Z"/><path class="cls-1" d="M24.994,14.137c-.504-.014-.842-.15-1.036-.414-.212-.289-.339-.67-.376-1.133-.04-.508-.061-1.331-.061-2.446,0-.503-.045-.957-.133-1.35-.093-.406-.241-.751-.444-1.026-.207-.283-.481-.499-.797-.636-.207-.107-.436-.176-.678-.208-.222-.029-.494-.043-.807-.043h-.453c-.141,0-.256,.115-.256,.256v1.301c0,.142,.115,.256,.256,.256h.255c.444,0,.669,.06,.78,.11,.13,.059,.217,.164,.274,.335,.07,.206,.105,.544,.105,1.005v1.194c0,.586,.03,1.091,.09,1.499,.06,.421,.164,.79,.31,1.094,.148,.314,.346,.581,.587,.797,.128,.116,.275,.226,.44,.33-.495,.295-.848,.689-1.053,1.176-.252,.6-.375,1.431-.375,2.541v1.219c0,.461-.035,.798-.106,1.006-.056,.167-.141,.269-.267,.324-.112,.047-.34,.103-.786,.103h-.255c-.141,0-.256,.115-.256,.256v1.293c0,.141,.115,.256,.256,.256h.453c.311,0,.574-.01,.786-.03,.233-.022,.467-.086,.687-.19,.32-.143,.588-.361,.799-.644,.207-.277,.361-.626,.454-1.037,.088-.397,.133-.851,.133-1.353,0-1.11,.021-1.929,.061-2.434,.037-.461,.163-.84,.376-1.13,.193-.263,.532-.399,1.036-.414,.139-.004,.249-.118,.249-.256v-1.351c0-.139-.11-.252-.249-.256Z"/></g></svg>