<svg width="30" height="30" viewBox="0 0 30 30" fill="none" xmlns="http://www.w3.org/2000/svg">
<path d="M21.5222 21.6995H8.9049C8.66587 21.6995 8.43664 21.7916 8.26763 21.9557C8.09861 22.1198 8.00366 22.3424 8.00366 22.5745C8.00366 22.8065 8.09861 23.0291 8.26763 23.1932C8.43664 23.3573 8.66587 23.4495 8.9049 23.4495H21.5222C21.7612 23.4495 21.9904 23.3573 22.1594 23.1932C22.3284 23.0291 22.4234 22.8065 22.4234 22.5745C22.4234 22.3424 22.3284 22.1198 22.1594 21.9557C21.9904 21.7916 21.7612 21.6995 21.5222 21.6995Z" fill="#58667E"/>
<path d="M8.90502 19.9495H8.98613L12.7443 19.617C13.156 19.5771 13.541 19.401 13.8348 19.1182L21.9459 11.2432C22.2607 10.9203 22.4308 10.4894 22.419 10.0449C22.4072 9.60045 22.2143 9.17865 21.8828 8.87196L19.4134 6.47446C19.0911 6.18054 18.6688 6.0119 18.2268 6.00061C17.7848 5.98931 17.3539 6.13616 17.0161 6.41321L8.90502 14.2882C8.61371 14.5734 8.43233 14.9473 8.39132 15.347L8.00379 18.9957C7.99165 19.1239 8.00878 19.2531 8.05395 19.374C8.09913 19.495 8.17124 19.6049 8.26515 19.6957C8.34936 19.7768 8.44923 19.841 8.55903 19.8845C8.66884 19.9281 8.78641 19.9501 8.90502 19.9495V19.9495ZM18.1607 7.69946L20.6211 10.0882L18.8186 11.7945L16.4033 9.44946L18.1607 7.69946ZM10.1397 15.4957L15.2137 10.6045L17.647 12.967L12.6001 17.867L9.89638 18.112L10.1397 15.4957Z" fill="#58667E"/>
</svg>
