<svg width="30" height="30" viewBox="0 0 30 30" fill="none" xmlns="http://www.w3.org/2000/svg">
<path d="M23.1234 9.50121H18.6173V8.03996C18.5961 7.4798 18.3471 6.95063 17.9247 6.56846C17.5024 6.18629 16.9412 5.9823 16.3642 6.00121H13.6605C13.0835 5.9823 12.5223 6.18629 12.0999 6.56846C11.6776 6.95063 11.4285 7.4798 11.4074 8.03996V9.50121H6.90123C6.66221 9.50121 6.43298 9.59339 6.26396 9.75749C6.09495 9.92158 6 10.1441 6 10.3762C6 10.6083 6.09495 10.8308 6.26396 10.9949C6.43298 11.159 6.66221 11.2512 6.90123 11.2512H7.80247V20.8762C7.80247 21.5724 8.08732 22.2401 8.59436 22.7324C9.1014 23.2246 9.7891 23.5012 10.5062 23.5012H19.5185C20.2356 23.5012 20.9233 23.2246 21.4303 22.7324C21.9373 22.2401 22.2222 21.5724 22.2222 20.8762V11.2512H23.1234C23.3624 11.2512 23.5917 11.159 23.7607 10.9949C23.9297 10.8308 24.0247 10.6083 24.0247 10.3762C24.0247 10.1441 23.9297 9.92158 23.7607 9.75749C23.5917 9.59339 23.3624 9.50121 23.1234 9.50121ZM13.2099 8.03996C13.2099 7.89996 13.3991 7.75121 13.6605 7.75121H16.3642C16.6255 7.75121 16.8148 7.89996 16.8148 8.03996V9.50121H13.2099V8.03996ZM20.4197 20.8762C20.4197 21.1083 20.3248 21.3308 20.1558 21.4949C19.9867 21.659 19.7575 21.7512 19.5185 21.7512H10.5062C10.2671 21.7512 10.0379 21.659 9.8689 21.4949C9.69988 21.3308 9.60493 21.1083 9.60493 20.8762V11.2512H20.4197V20.8762Z" fill="#58667E"/>
<path d="M12.3086 19.1262C12.5476 19.1262 12.7768 19.034 12.9458 18.8699C13.1149 18.7058 13.2098 18.4833 13.2098 18.2512V14.7512C13.2098 14.5192 13.1149 14.2966 12.9458 14.1325C12.7768 13.9684 12.5476 13.8762 12.3086 13.8762C12.0696 13.8762 11.8403 13.9684 11.6713 14.1325C11.5023 14.2966 11.4073 14.5192 11.4073 14.7512V18.2512C11.4073 18.4833 11.5023 18.7058 11.6713 18.8699C11.8403 19.034 12.0696 19.1262 12.3086 19.1262Z" fill="#58667E"/>
<path d="M17.7161 19.1262C17.9551 19.1262 18.1843 19.034 18.3533 18.8699C18.5223 18.7058 18.6173 18.4833 18.6173 18.2512V14.7512C18.6173 14.5192 18.5223 14.2966 18.3533 14.1325C18.1843 13.9684 17.9551 13.8762 17.7161 13.8762C17.477 13.8762 17.2478 13.9684 17.0788 14.1325C16.9098 14.2966 16.8148 14.5192 16.8148 14.7512V18.2512C16.8148 18.4833 16.9098 18.7058 17.0788 18.8699C17.2478 19.034 17.477 19.1262 17.7161 19.1262Z" fill="#58667E"/>
</svg>
