<?xml version="1.0" encoding="UTF-8"?><svg id="Layer_1" xmlns="http://www.w3.org/2000/svg" xmlns:xlink="http://www.w3.org/1999/xlink" viewBox="0 0 30 30"><defs><style>.cls-1{clip-path:url(#clippath);}.cls-2{fill:none;}.cls-3{fill:#58667e;}</style><clipPath id="clippath"><rect class="cls-2" x="8.081" y="6.779" width="13.839" height="16.5"/></clipPath></defs><g class="cls-1"><g><path class="cls-3" d="M15.001,21.353h-4.959V8.704h9.916v6.325c0,.532,.439,.963,.98,.963s.981-.431,.981-.963V7.742c0-.532-.44-.963-.981-.963H9.062c-.542,0-.981,.431-.981,.963v14.573c0,.532,.44,.963,.981,.963h5.939c.542,0,.981-.431,.981-.963s-.44-.963-.981-.963h0Z"/><path class="cls-3" d="M21.633,18.174l-1.67-1.64c-.383-.377-1.004-.377-1.387,0l-1.671,1.64c-.383,.377-.383,.985,0,1.362,.383,.377,1,.375,1.384,.003v2.777c0,.532,.44,.963,.981,.963s.981-.431,.981-.963v-2.776c.192,.185,.439,.279,.69,.279s.502-.094,.693-.281c.383-.377,.383-.985,0-1.362h0v-.002Z"/><path class="cls-3" d="M12.031,11.152c-.542,0-.981,.431-.981,.963s.44,.963,.981,.963h5.939c.542,0,.981-.431,.981-.963s-.44-.963-.981-.963h-5.939Z"/><path class="cls-3" d="M15.001,14.327h-2.97c-.542,0-.981,.431-.981,.963s.44,.963,.981,.963h2.97c.542,0,.981-.431,.981-.963s-.44-.963-.981-.963Z"/></g></g></svg>