<?xml version="1.0" encoding="utf-8"?>
<!-- Generator: Adobe Illustrator 27.0.0, SVG Export Plug-In . SVG Version: 6.00 Build 0)  -->
<svg version="1.1" id="Layer_1" xmlns="http://www.w3.org/2000/svg" xmlns:xlink="http://www.w3.org/1999/xlink" x="0px" y="0px"
	 viewBox="0 0 30 30" style="enable-background:new 0 0 30 30;" xml:space="preserve">
<style type="text/css">
	.st0{fill:#58667E;}
</style>
<path class="st0" d="M24.9,14.5c-0.6-1.1-4.2-6.7-10.1-6.5C9.2,8.1,6,13,5.1,14.5C5,14.7,5,14.8,5,15c0,0.2,0,0.3,0.1,0.5
	c0.6,1.1,4,6.5,9.9,6.5h0.3c5.5-0.1,8.7-5,9.6-6.5C25,15.3,25,15.2,25,15C25,14.8,25,14.7,24.9,14.5z M15.2,20c-4.3,0.1-7.1-3.6-8-5
	c1-1.6,3.6-4.9,7.6-5c4.3-0.1,7.1,3.6,8,5C21.8,16.6,19.2,19.9,15.2,20z"/>
<path class="st0" d="M15,11.5c-0.7,0-1.4,0.2-1.9,0.6c-0.6,0.4-1,0.9-1.3,1.6c-0.3,0.6-0.3,1.3-0.2,2c0.1,0.7,0.5,1.3,1,1.8
	c0.5,0.5,1.1,0.8,1.8,1s1.4,0.1,2-0.2c0.6-0.3,1.2-0.7,1.6-1.3s0.6-1.3,0.6-1.9c0-0.9-0.4-1.8-1-2.5S15.9,11.5,15,11.5L15,11.5z
	 M15,16.5c-0.3,0-0.6-0.1-0.8-0.3c-0.2-0.2-0.4-0.4-0.6-0.7c-0.1-0.3-0.1-0.6-0.1-0.9c0.1-0.3,0.2-0.6,0.4-0.8
	c0.2-0.2,0.5-0.4,0.8-0.4c0.3-0.1,0.6,0,0.9,0.1c0.3,0.1,0.5,0.3,0.7,0.6c0.2,0.2,0.3,0.5,0.3,0.8c0,0.4-0.2,0.8-0.4,1.1
	S15.4,16.5,15,16.5z"/>
</svg>
