<svg width="94" height="96" viewBox="0 0 94 96" fill="none" xmlns="http://www.w3.org/2000/svg">
<g clip-path="url(#clip0_30_331)">
<path d="M83.729 15.7078H8.06826C5.99764 15.7078 4.31906 17.4168 4.31906 19.525V78.6916C4.31906 80.7998 5.99764 82.5088 8.06826 82.5088H83.729C85.7996 82.5088 87.4782 80.7998 87.4782 78.6916V19.525C87.4782 17.4168 85.7996 15.7078 83.729 15.7078Z" stroke="#19CAE9" stroke-width="3" stroke-linecap="round" stroke-linejoin="round"/>
<path d="M8.06826 15.7078H83.729C85.7986 15.7078 87.4782 17.4179 87.4782 19.525V25.1744H4.31906V19.525C4.31906 17.4179 5.9987 15.7078 8.06826 15.7078Z" stroke="#19CAE9" stroke-width="3" stroke-linecap="round" stroke-linejoin="round"/>
<path d="M61.5543 56.4068V52.517L58.3525 51.7383C58.0245 50.1771 57.4171 48.7246 56.5923 47.4268L58.3188 44.5658L55.6175 41.8155L52.8075 43.5733C51.5327 42.7335 50.1062 42.1152 48.5727 41.7812L47.8079 38.5213H43.9875L43.2226 41.7812C41.6892 42.1152 40.2608 42.7335 38.9879 43.5733L36.1779 41.8155L33.4766 44.5658L35.2031 47.4268C34.3783 48.7246 33.7709 50.1771 33.4428 51.7383L30.241 52.517V56.4068L33.4428 57.1855C33.7709 58.7467 34.3783 60.2011 35.2031 61.497L33.4766 64.358L36.1779 67.1083L38.9879 65.3505C40.2626 66.1902 41.6892 66.8086 43.2226 67.1426L43.9875 70.4025H47.8079L48.5727 67.1426C50.1062 66.8086 51.5327 66.1902 52.8075 65.3505L55.6175 67.1083L58.3188 64.358L56.5923 61.497C57.4171 60.1992 58.0245 58.7467 58.3525 57.1855L61.5543 56.4068V56.4068Z" stroke="#3352FF" stroke-width="3" stroke-linecap="round" stroke-linejoin="round"/>
<path d="M45.8977 60.306C49.0678 60.306 51.6377 57.6895 51.6377 54.4619C51.6377 51.2343 49.0678 48.6178 45.8977 48.6178C42.7275 48.6178 40.1577 51.2343 40.1577 54.4619C40.1577 57.6895 42.7275 60.306 45.8977 60.306Z" stroke="#3352FF" stroke-width="3" stroke-linecap="round" stroke-linejoin="round"/>
<path d="M12.0087 40.9433H16.1872" stroke="#19CAE9" stroke-width="3" stroke-linecap="round" stroke-linejoin="round"/>
<path d="M12.0087 47.0298H16.1872" stroke="#19CAE9" stroke-width="3" stroke-linecap="round" stroke-linejoin="round"/>
<path d="M12.0087 61.8921H16.1872" stroke="#19CAE9" stroke-width="3" stroke-linecap="round" stroke-linejoin="round"/>
<path d="M12.0087 67.9805H16.1872" stroke="#19CAE9" stroke-width="3" stroke-linecap="round" stroke-linejoin="round"/>
<path d="M20.0882 40.9433H23.8224L27.3167 44.5792" stroke="#19CAE9" stroke-width="3" stroke-linecap="round" stroke-linejoin="round"/>
<path d="M20.0882 67.9805H23.7024" stroke="#19CAE9" stroke-width="3" stroke-linecap="round" stroke-linejoin="round"/>
<path d="M79.7886 40.9433H75.6101" stroke="#19CAE9" stroke-width="3" stroke-linecap="round" stroke-linejoin="round"/>
<path d="M79.7886 47.0298H75.6101" stroke="#19CAE9" stroke-width="3" stroke-linecap="round" stroke-linejoin="round"/>
<path d="M79.7886 61.8921H75.6101" stroke="#19CAE9" stroke-width="3" stroke-linecap="round" stroke-linejoin="round"/>
<path d="M79.7886 67.9805H75.6101" stroke="#19CAE9" stroke-width="3" stroke-linecap="round" stroke-linejoin="round"/>
<path d="M71.709 40.9433H67.9748L64.4806 44.5792" stroke="#19CAE9" stroke-width="3" stroke-linecap="round" stroke-linejoin="round"/>
<path d="M71.709 67.9805H68.0948" stroke="#19CAE9" stroke-width="3" stroke-linecap="round" stroke-linejoin="round"/>
</g>
<defs>
<clipPath id="clip0_30_331">
<rect width="93.73" height="95.43" fill="white"/>
</clipPath>
</defs>
</svg>
