<svg width="17" height="16" viewBox="0 0 17 16" fill="none" xmlns="http://www.w3.org/2000/svg">
<g clip-path="url(#clip0_30_191)">
<path d="M16.2824 14.2541L13.1666 11.1388C13.0259 10.9982 12.8353 10.9201 12.6353 10.9201H12.1259C12.9884 9.81704 13.501 8.42967 13.501 6.92045C13.501 3.33017 10.5914 0.421082 7.00048 0.421082C3.40959 0.421082 0.5 3.33017 0.5 6.92045C0.5 10.5107 3.40959 13.4198 7.00048 13.4198C8.50996 13.4198 9.89756 12.9074 11.0008 12.0449V12.5543C11.0008 12.7543 11.0789 12.9449 11.2195 13.0855L14.3354 16.2008C14.6292 16.4945 15.1042 16.4945 15.3948 16.2008L16.2793 15.3165C16.5731 15.0228 16.5731 14.5478 16.2824 14.2541ZM7.00048 10.9201C4.79094 10.9201 3.00018 9.13273 3.00018 6.92045C3.00018 4.71129 4.78781 2.92084 7.00048 2.92084C9.21001 2.92084 11.0008 4.70816 11.0008 6.92045C11.0008 9.12961 9.21314 10.9201 7.00048 10.9201Z" fill="white"/>
</g>
<defs>
<clipPath id="clip0_30_191">
<rect width="16" height="16" fill="white" transform="translate(0.5)"/>
</clipPath>
</defs>
</svg>
