<?xml version="1.0" encoding="utf-8"?>
<!-- Generator: Adobe Illustrator 27.0.0, SVG Export Plug-In . SVG Version: 6.00 Build 0)  -->
<svg version="1.1" id="Layer_1" xmlns="http://www.w3.org/2000/svg" xmlns:xlink="http://www.w3.org/1999/xlink" x="0px" y="0px"
	 viewBox="0 0 30 30" style="enable-background:new 0 0 30 30;" xml:space="preserve">
<style type="text/css">
	.st0{fill:#58667E;}
</style>
<path class="st0" d="M15,13.9c0.9,0,1.8-0.3,2.5-0.7s1.3-1.2,1.7-2c0.3-0.8,0.4-1.7,0.3-2.6S18.8,7,18.1,6.4c-0.6-0.6-1.4-1-2.3-1.2
	s-1.8-0.1-2.6,0.3c-0.8,0.3-1.5,0.9-2,1.6c-0.5,0.7-0.8,1.6-0.8,2.5c0,1.2,0.5,2.3,1.3,3.1C12.6,13.5,13.8,13.9,15,13.9L15,13.9z
	 M15,7.3c0.4,0,0.9,0.1,1.2,0.4c0.4,0.2,0.7,0.6,0.8,1c0.2,0.4,0.2,0.9,0.1,1.3c-0.1,0.4-0.3,0.8-0.6,1.1c-0.3,0.3-0.7,0.5-1.2,0.6
	c-0.4,0.1-0.9,0-1.3-0.1s-0.8-0.5-1-0.8c-0.2-0.4-0.4-0.8-0.4-1.2c0-0.6,0.2-1.2,0.7-1.6C13.8,7.5,14.4,7.3,15,7.3L15,7.3z"/>
<path class="st0" d="M15.1,16.2c-2.2,0-4.3,0.8-5.9,2.3s-2.4,3.4-2.4,5.5c0,0.3,0.1,0.6,0.3,0.8s0.5,0.3,0.8,0.3s0.6-0.1,0.8-0.3
	s0.3-0.5,0.3-0.8c0-1.5,0.6-2.9,1.7-3.9c1.1-1,2.6-1.6,4.2-1.6s3.1,0.6,4.2,1.6c1.1,1,1.7,2.5,1.7,3.9c0,0.3,0.1,0.6,0.3,0.8
	c0.2,0.2,0.5,0.3,0.8,0.3s0.6-0.1,0.8-0.3s0.3-0.5,0.3-0.8c0-2.1-0.9-4-2.4-5.5C19.4,17,17.3,16.2,15.1,16.2L15.1,16.2L15.1,16.2z"
	/>
</svg>
