<?xml version="1.0" encoding="utf-8"?>
<!-- Generator: Adobe Illustrator 27.0.0, SVG Export Plug-In . SVG Version: 6.00 Build 0)  -->
<svg version="1.1" id="Capa_1" xmlns="http://www.w3.org/2000/svg" xmlns:xlink="http://www.w3.org/1999/xlink" x="0px" y="0px"
	 viewBox="0 0 26 30" style="enable-background:new 0 0 26 30;" xml:space="preserve">
<style type="text/css">
	.st0{fill:#231F20;}
</style>
<path class="st0" d="M22.201,13.768H3.673c-0.604,0-1.093,0.56-1.093,1.25v0.132c0,0.691,0.489,1.25,1.093,1.25h18.528
	c0.604,0,1.093-0.56,1.093-1.25v-0.132C23.294,14.328,22.805,13.768,22.201,13.768z"/>
<path class="st0" d="M22.201,20.349H3.673c-0.604,0-1.093,0.56-1.093,1.25v0.132c0,0.691,0.489,1.25,1.093,1.25h18.528
	c0.604,0,1.093-0.56,1.093-1.25V21.6C23.294,20.909,22.805,20.349,22.201,20.349z"/>
<path class="st0" d="M22.201,7.187H3.673c-0.604,0-1.093,0.56-1.093,1.25v0.132c0,0.691,0.489,1.25,1.093,1.25h18.528
	c0.604,0,1.093-0.56,1.093-1.25V8.438C23.294,7.747,22.805,7.187,22.201,7.187z"/>
</svg>
