<?xml version="1.0" encoding="utf-8"?>
<!-- Generator: Adobe Illustrator 27.0.0, SVG Export Plug-In . SVG Version: 6.00 Build 0)  -->
<svg version="1.1" id="Layer_1" xmlns="http://www.w3.org/2000/svg" xmlns:xlink="http://www.w3.org/1999/xlink" x="0px" y="0px"
	 viewBox="0 0 30 30" style="enable-background:new 0 0 30 30;" xml:space="preserve">
<style type="text/css">
	.st0{fill:#58667E;}
</style>
<path class="st0" d="M25.2,15.1c0-1.3-0.3-2.6-0.8-3.9c-0.5-1.2-1.3-2.3-2.2-3.3s-2.1-1.7-3.3-2.2s-2.5-0.8-3.9-0.8
	c-2.7,0-5.3,1.1-7.2,3c-1.9,1.9-3,4.5-3,7.2s1.1,5.3,3,7.2c1.9,1.9,4.5,3,7.2,3s5.3-1.1,7.2-3C24.1,20.3,25.2,17.8,25.2,15.1
	L25.2,15.1L25.2,15.1z M23.1,14.1h-3c-0.2-2.4-1-4.7-2.4-6.6c1.4,0.5,2.7,1.4,3.6,2.6C22.3,11.2,22.9,12.6,23.1,14.1L23.1,14.1
	L23.1,14.1z M12.1,16.1h6c-0.3,2.5-1.3,4.9-3,6.7C13.4,20.9,12.3,18.6,12.1,16.1L12.1,16.1L12.1,16.1z M12.1,14.1
	c0.2-2.5,1.3-4.8,3-6.7c1.7,1.8,2.8,4.2,3,6.7H12.1L12.1,14.1z M12.5,7.4c-1.4,2-2.2,4.3-2.4,6.7H7c0.2-1.5,0.8-2.9,1.8-4.1
	S11,7.9,12.5,7.4C12.5,7.4,12.5,7.4,12.5,7.4z M7,16.1h3c0.2,2.4,1,4.7,2.4,6.6c-1.4-0.5-2.7-1.4-3.7-2.5S7.2,17.6,7,16.1L7,16.1
	L7,16.1z M17.7,22.7c1.4-2,2.2-4.2,2.4-6.6h3c-0.2,1.5-0.8,2.9-1.8,4.1S19.2,22.2,17.7,22.7C17.7,22.7,17.7,22.7,17.7,22.7z"/>
</svg>
