<svg width="18" height="18" viewBox="0 0 18 18" fill="none" xmlns="http://www.w3.org/2000/svg">
<path d="M16.2452 7.77726C16.2704 7.73295 16.2881 7.68481 16.2977 7.63476L16.8602 4.63476C16.896 4.43584 16.8513 4.23085 16.736 4.06488C16.6206 3.89891 16.4441 3.78556 16.2452 3.74976C16.0463 3.71395 15.8413 3.75863 15.6753 3.87397C15.5093 3.9893 15.396 4.16584 15.3602 4.36476L15.0827 5.86476C14.4584 4.72469 13.5254 3.78366 12.3908 3.14959C11.2561 2.51552 9.96573 2.21409 8.6676 2.27986C7.36946 2.34562 6.11615 2.77593 5.05139 3.52143C3.98663 4.26693 3.15355 5.29743 2.64768 6.49476C2.57348 6.67878 2.57522 6.88472 2.65254 7.06746C2.72985 7.2502 2.87643 7.39486 3.06018 7.46976C3.15172 7.50766 3.24987 7.52705 3.34894 7.5268C3.44802 7.52656 3.54607 7.50668 3.63742 7.46833C3.72878 7.42997 3.81163 7.3739 3.88118 7.30334C3.95074 7.23279 4.00563 7.14915 4.04268 7.05726C4.44658 6.06486 5.14125 5.21786 6.03541 4.62755C6.92957 4.03725 7.9814 3.73124 9.05268 3.74976C10.0001 3.74534 10.932 3.99133 11.7538 4.46283C12.5756 4.93432 13.2583 5.61459 13.7327 6.43476L12.4952 6.23226C12.3967 6.2165 12.2961 6.22029 12.199 6.24342C12.102 6.26656 12.0105 6.30857 11.9297 6.36707C11.8489 6.42557 11.7804 6.49941 11.7282 6.58438C11.6759 6.66934 11.6409 6.76376 11.6252 6.86226C11.6094 6.96075 11.6132 7.06138 11.6363 7.1584C11.6595 7.25543 11.7015 7.34695 11.76 7.42773C11.8185 7.50852 11.8923 7.57699 11.9773 7.62924C12.0623 7.68149 12.1567 7.7165 12.2552 7.73226L15.4427 8.26476H15.5627C15.6497 8.2658 15.7362 8.25054 15.8177 8.21976C15.8452 8.20933 15.8706 8.19409 15.8927 8.17476C15.9465 8.15476 15.997 8.12696 16.0427 8.09226L16.1027 8.01726C16.1416 7.98084 16.1768 7.94064 16.2077 7.89726C16.2259 7.85928 16.2386 7.81886 16.2452 7.77726Z" fill="#616876"/>
<path d="M14.9096 10.5523C14.8176 10.5146 14.7191 10.4956 14.6196 10.4964C14.5202 10.4971 14.4219 10.5176 14.3305 10.5567C14.2391 10.5958 14.1563 10.6527 14.0871 10.724C14.0178 10.7954 13.9635 10.8798 13.9271 10.9723C13.5204 11.9543 12.8284 12.7916 11.9405 13.3759C11.0527 13.9603 10.0099 14.2647 8.94714 14.2498C7.99967 14.2543 7.06785 14.0083 6.24602 13.5368C5.42419 13.0653 4.74153 12.385 4.26714 11.5648L5.50464 11.7673H5.62464C5.82355 11.7833 6.02064 11.7195 6.17254 11.5901C6.32445 11.4607 6.41873 11.2763 6.43464 11.0773C6.45055 10.8784 6.3868 10.6813 6.2574 10.5294C6.128 10.3775 5.94355 10.2833 5.74464 10.2673L2.55714 9.74984C2.47533 9.73475 2.39145 9.73475 2.30964 9.74984H2.24964C2.16476 9.77241 2.08383 9.80782 2.00964 9.85484C1.95907 9.8939 1.9137 9.93927 1.87464 9.98984L1.80714 10.0648C1.78396 10.11 1.76633 10.1579 1.75464 10.2073C1.72836 10.2457 1.71047 10.2891 1.70214 10.3348L1.13964 13.3348C1.11555 13.4345 1.11216 13.5381 1.12967 13.6391C1.14719 13.7402 1.18524 13.8365 1.24147 13.9223C1.2977 14.008 1.37092 14.0814 1.45661 14.1377C1.54229 14.194 1.63862 14.2322 1.73964 14.2498H1.87464C2.05223 14.2527 2.22509 14.1925 2.36243 14.0799C2.49977 13.9673 2.59269 13.8096 2.62464 13.6348L2.90214 12.1348C3.52578 13.2752 4.45817 14.2167 5.59239 14.8513C6.72662 15.486 8.01676 15.7882 9.31486 15.7232C10.613 15.6582 11.8665 15.2287 12.9316 14.4839C13.9968 13.7392 14.8305 12.7093 15.3371 11.5123C15.4059 11.3282 15.3996 11.1245 15.3196 10.9449C15.2397 10.7654 15.0925 10.6244 14.9096 10.5523Z" fill="#616876"/>
</svg>
