<svg width="88" height="93" viewBox="0 0 88 93" fill="none" xmlns="http://www.w3.org/2000/svg">
<path d="M52.7763 74.551L51.2798 75.0319C50.1213 75.388 48.9363 75.6898 47.733 75.9333C46.5297 76.1767 45.302 76.3618 44.0579 76.4865C42.8139 76.6113 41.5516 76.6757 40.2729 76.6757C38.9943 76.6757 37.7319 76.6113 36.4879 76.4865C35.2439 76.3618 34.0182 76.1767 32.8129 75.9333C31.6075 75.6898 30.4246 75.388 29.2661 75.0319C28.1075 74.6758 26.9714 74.2653 25.8659 73.8026C24.7603 73.3398 23.6791 72.8248 22.6306 72.2614C21.582 71.6981 20.564 71.0865 19.5786 70.4285C18.5931 69.7706 17.6423 69.0685 16.7281 68.322C15.8139 67.5756 14.9364 66.7889 14.0995 65.962C13.2627 65.1351 12.4646 64.2679 11.7113 63.3646C10.9579 62.4612 10.2453 61.5216 9.57952 60.5478C8.91374 59.574 8.29478 58.5681 7.72469 57.5319C7.15459 56.4957 6.63336 55.4294 6.16507 54.3349C5.69678 53.2404 5.28143 52.1197 4.92105 50.9749C4.56067 49.8301 4.25526 48.6592 4.0089 47.4701C3.76254 46.281 3.57522 45.0678 3.44899 43.8385C3.32275 42.6092 3.2576 41.3618 3.2576 40.0983C3.2576 38.8348 3.32275 37.5874 3.44899 36.3581C3.57522 35.1288 3.76254 33.9176 4.0089 32.7265C4.25526 31.5354 4.56067 30.3665 4.92105 29.2217C5.28143 28.0769 5.69678 26.9542 6.16507 25.8617C6.63336 24.7692 7.15459 23.7009 7.72469 22.6647C8.29478 21.6285 8.91374 20.6226 9.57952 19.6488C10.2453 18.675 10.9559 17.7354 11.7113 16.832C12.4666 15.9287 13.2627 15.0615 14.0995 14.2346C14.9364 13.4077 15.8139 12.619 16.7281 11.8746C17.6423 11.1302 18.5931 10.426 19.5786 9.76806C20.564 9.11015 21.582 8.49851 22.6306 7.93517C23.6791 7.37182 24.7583 6.85676 25.8659 6.39401C26.9735 5.93126 28.1075 5.52082 29.2661 5.1647C30.4246 4.80859 31.6095 4.50679 32.8129 4.26335C34.0162 4.0199 35.2439 3.8348 36.4879 3.71006C37.7319 3.58532 38.9943 3.52094 40.2729 3.52094C41.5516 3.52094 42.8139 3.58532 44.0579 3.71006C45.302 3.8348 46.5277 4.0199 47.733 4.26335C48.9383 4.50679 50.1213 4.80859 51.2798 5.1647C52.4383 5.52082 53.5744 5.93126 54.68 6.39401C55.7856 6.85676 56.8667 7.37182 57.9153 7.93517C58.9638 8.49851 59.9819 9.11015 60.9673 9.76806C61.9528 10.426 62.9036 11.1281 63.8178 11.8746C64.732 12.621 65.6095 13.4077 66.4463 14.2346C67.2831 15.0615 68.0813 15.9287 68.8346 16.832C69.5879 17.7354 70.3005 18.675 70.9663 19.6488C71.6321 20.6226 72.2511 21.6285 72.8212 22.6647C73.3913 23.7009 73.9125 24.7672 74.3808 25.8617C74.8491 26.9562 75.2644 28.0769 75.6248 29.2217C75.9852 30.3665 76.2906 31.5374 76.537 32.7265C76.7833 33.9156 76.9706 35.1288 77.0969 36.3581C77.2231 37.5874 77.2883 38.8348 77.2883 40.0983C77.2883 40.0983 77.2659 41.726 77.105 43.3295" stroke="#19CAE9" stroke-width="3" stroke-miterlimit="10"/>
<path d="M69.5594 43.0739C69.6592 42.0961 69.7121 41.1042 69.7121 40.1003C69.7121 39.0963 69.6612 38.1044 69.5594 37.1266C69.4576 36.1488 69.309 35.1851 69.1135 34.2374C68.918 33.2898 68.6758 32.3603 68.3887 31.4489C68.1016 30.5374 67.7717 29.6461 67.3992 28.777C67.0266 27.9078 66.6132 27.0588 66.1592 26.2339C65.7052 25.409 65.2145 24.6102 64.6851 23.8356C64.1557 23.061 63.5897 22.3146 62.9911 21.5963C62.3925 20.878 61.7573 20.1879 61.0915 19.53C60.4257 18.8721 59.7273 18.2444 59.0005 17.6529C58.2736 17.0614 57.5182 16.502 56.7343 15.9789C55.9505 15.4558 55.1422 14.9689 54.3074 14.5223C53.4726 14.0756 52.6154 13.6652 51.7338 13.297C50.8522 12.9288 49.9502 12.6029 49.0299 12.3192C48.1097 12.0355 47.167 11.7961 46.208 11.6029C45.249 11.4098 44.2737 11.2609 43.2842 11.1623C42.2947 11.0637 41.2909 11.0114 40.2749 11.0114C39.259 11.0114 38.2552 11.0617 37.2657 11.1623C36.2762 11.2629 35.3009 11.4098 34.3419 11.6029C33.3829 11.7961 32.4423 12.0355 31.52 12.3192C30.5976 12.6029 29.6957 12.9288 28.8161 13.297C27.9365 13.6652 27.0773 14.0736 26.2425 14.5223C25.4077 14.9709 24.5994 15.4558 23.8156 15.9789C23.0317 16.502 22.2763 17.0614 21.5494 17.6529C20.8226 18.2444 20.1242 18.8721 19.4584 19.53C18.7926 20.1879 18.1574 20.878 17.5588 21.5963C16.9602 22.3146 16.3942 23.061 15.8648 23.8356C15.3354 24.6102 14.8427 25.409 14.3907 26.2339C13.9387 27.0588 13.5233 27.9058 13.1507 28.777C12.7782 29.6482 12.4483 30.5395 12.1612 31.4489C11.8741 32.3583 11.6319 33.2898 11.4364 34.2374C11.2409 35.1851 11.0903 36.1488 10.9905 37.1266C10.8907 38.1044 10.8378 39.0963 10.8378 40.1003C10.8378 41.1042 10.8887 42.0961 10.9905 43.0739C11.0923 44.0518 11.2409 45.0155 11.4364 45.9631C11.6319 46.9107 11.8741 47.8403 12.1612 48.7517C12.4483 49.6631 12.7782 50.5544 13.1507 51.4236C13.5233 52.2927 13.9367 53.1418 14.3907 53.9667C14.8447 54.7916 15.3354 55.5903 15.8648 56.3649C16.3942 57.1395 16.9602 57.886 17.5588 58.6042C18.1574 59.3225 18.7926 60.0126 19.4584 60.6705C20.1242 61.3284 20.8226 61.9562 21.5494 62.5477C22.2763 63.1392 23.0317 63.6985 23.8156 64.2216C24.5994 64.7447 25.4077 65.2316 26.2425 65.6783C27.0773 66.1249 27.9345 66.5354 28.8161 66.9035C29.6977 67.2717 30.5997 67.5977 31.52 67.8814C32.4402 68.165 33.3829 68.4045 34.3419 68.5976C35.3009 68.7908 36.2762 68.9396 37.2657 69.0382C38.2552 69.1368 39.259 69.1891 40.2749 69.1891C41.2909 69.1891 42.2947 69.1388 43.2842 69.0382C44.2737 68.9376 45.249 68.7908 46.208 68.5976C46.208 68.5976 47.224 68.3683 47.4744 68.2878" stroke="#19CAE9" stroke-width="3" stroke-miterlimit="10"/>
<path d="M40.273 44.4944C42.7299 44.4944 44.7217 42.5262 44.7217 40.0983C44.7217 37.6704 42.7299 35.7021 40.273 35.7021C37.816 35.7021 35.8242 37.6704 35.8242 40.0983C35.8242 42.5262 37.816 44.4944 40.273 44.4944Z" stroke="#19CAE9" stroke-width="3" stroke-miterlimit="10"/>
<path d="M40.2729 24.5137C41.3895 24.5137 42.2947 23.6192 42.2947 22.5158C42.2947 21.4124 41.3895 20.5179 40.2729 20.5179C39.1563 20.5179 38.2511 21.4124 38.2511 22.5158C38.2511 23.6192 39.1563 24.5137 40.2729 24.5137Z" stroke="#19CAE9" stroke-width="3" stroke-miterlimit="10"/>
<path d="M22.48 42.0961C23.5966 42.0961 24.5017 41.2017 24.5017 40.0983C24.5017 38.9949 23.5966 38.1004 22.48 38.1004C21.3633 38.1004 20.4582 38.9949 20.4582 40.0983C20.4582 41.2017 21.3633 42.0961 22.48 42.0961Z" stroke="#19CAE9" stroke-width="3" stroke-miterlimit="10"/>
<path d="M60.2669 90.035V82.8282C58.5261 81.5667 46.0797 66.6199 46.0797 66.6199L40.2729 59.9422C39.3262 58.8517 39.5603 57.041 40.8105 55.8056C42.0606 54.5703 43.893 54.3369 44.9966 55.2745L51.7562 61.0126C51.7786 61.0327 51.7929 61.0568 51.8153 61.0769V33.4588C51.8153 31.2919 53.609 29.5194 55.8019 29.5194C57.9947 29.5194 59.7884 31.2919 59.7884 33.4588V46.2991C59.7884 44.1322 61.5822 42.3597 63.775 42.3597C65.9678 42.3597 67.7616 44.1322 67.7616 46.2991C67.7616 44.1322 69.5553 42.3597 71.7482 42.3597C73.941 42.3597 75.7347 44.1322 75.7347 46.2991C75.7347 44.1322 77.5285 42.3597 79.7213 42.3597C81.9141 42.3597 83.7079 44.1322 83.7079 46.2991V79.3314C83.7079 81.4983 81.9141 83.2708 79.7213 83.2708V90.035" stroke="#3352FF" stroke-width="3" stroke-linecap="round" stroke-linejoin="round"/>
<path d="M75.7347 58.3709V46.285" stroke="#3352FF" stroke-width="3" stroke-linecap="round" stroke-linejoin="round"/>
<path d="M67.7697 58.3709V46.285" stroke="#3352FF" stroke-width="3" stroke-linecap="round" stroke-linejoin="round"/>
<path d="M59.7824 58.3709V46.285" stroke="#3352FF" stroke-width="3" stroke-linecap="round" stroke-linejoin="round"/>
</svg>
