<svg width="83" height="87" viewBox="0 0 83 87" fill="none" xmlns="http://www.w3.org/2000/svg">
<path d="M75.1943 15.2925H7.4231C4.95026 15.2925 2.94562 17.2817 2.94562 19.7355V66.6629C2.94562 69.1167 4.95026 71.1059 7.4231 71.1059H75.1943C77.6672 71.1059 79.6718 69.1167 79.6718 66.6629V19.7355C79.6718 17.2817 77.6672 15.2925 75.1943 15.2925Z" stroke="#19CAE9" stroke-width="3" stroke-linecap="round" stroke-linejoin="round"/>
<path d="M49.7264 71.1059H32.8911V78.6457H49.7264V71.1059Z" stroke="#19CAE9" stroke-width="3" stroke-linecap="round" stroke-linejoin="round"/>
<path d="M68.0908 78.6457H14.5244V82.8977H68.0908V78.6457Z" stroke="#19CAE9" stroke-width="3" stroke-linecap="round" stroke-linejoin="round"/>
<path d="M75.1943 71.1059L7.42311 71.1059C4.95153 71.1059 2.94562 69.1154 2.94562 66.6629V62.593L79.6718 62.593V66.6629C79.6718 69.1154 77.6659 71.1059 75.1943 71.1059Z" stroke="#19CAE9" stroke-width="3" stroke-linecap="round" stroke-linejoin="round"/>
<path d="M55.433 42.7815V39.3604L52.545 38.6762C52.2495 37.3033 51.701 36.0259 50.9577 34.884L52.5159 32.3693L50.0779 29.9501L47.5436 31.4962C46.3929 30.7565 45.1056 30.2144 43.7221 29.9212L43.0326 27.0554H39.5849L38.8954 29.9212C37.5118 30.2144 36.2245 30.7587 35.0738 31.4962L32.5396 29.9501L30.1016 32.3693L31.6598 34.884C30.9143 36.0259 30.368 37.3033 30.0725 38.6762L27.1845 39.3604V42.7815L30.0725 43.4658C30.368 44.8387 30.9165 46.116 31.6598 47.2579L30.1016 49.7727L32.5396 52.1919L35.0738 50.6457C36.2245 51.3855 37.5118 51.9275 38.8954 52.2208L39.5849 55.0865H43.0326L43.7221 52.2208C45.1056 51.9275 46.3929 51.3833 47.5436 50.6457L50.0779 52.1919L52.5159 49.7727L50.9577 47.2579C51.7032 46.116 52.2495 44.8387 52.545 43.4658L55.433 42.7815Z" stroke="#3352FF" stroke-width="3" stroke-linecap="round" stroke-linejoin="round"/>
<path d="M41.3087 46.2094C44.1686 46.2094 46.487 43.9088 46.487 41.071C46.487 38.2331 44.1686 35.9326 41.3087 35.9326C38.4489 35.9326 36.1305 38.2331 36.1305 41.071C36.1305 43.9088 38.4489 46.2094 41.3087 46.2094Z" stroke="#3352FF" stroke-width="3" stroke-linecap="round" stroke-linejoin="round"/>
<path d="M20.578 5.92654H33.9567V30.8142" stroke="#3352FF" stroke-width="3" stroke-linecap="round" stroke-linejoin="round"/>
<path d="M17.5512 8.93005C19.2228 8.93005 20.578 7.58534 20.578 5.92656C20.578 4.26778 19.2228 2.92307 17.5512 2.92307C15.8795 2.92307 14.5244 4.26778 14.5244 5.92656C14.5244 7.58534 15.8795 8.93005 17.5512 8.93005Z" stroke="#3352FF" stroke-width="3" stroke-linecap="round" stroke-linejoin="round"/>
<path d="M62.0395 5.92654H48.6607V30.8142" stroke="#3352FF" stroke-width="3" stroke-linecap="round" stroke-linejoin="round"/>
<path d="M65.0663 8.93005C66.7379 8.93005 68.0931 7.58534 68.0931 5.92656C68.0931 4.26778 66.7379 2.92307 65.0663 2.92307C63.3947 2.92307 62.0395 4.26778 62.0395 5.92656C62.0395 7.58534 63.3947 8.93005 65.0663 8.93005Z" stroke="#3352FF" stroke-width="3" stroke-linecap="round" stroke-linejoin="round"/>
<path d="M13.8058 41.071H27.1845" stroke="#3352FF" stroke-width="3" stroke-linecap="round" stroke-linejoin="round"/>
<path d="M10.779 44.0745C12.4507 44.0745 13.8058 42.7298 13.8058 41.071C13.8058 39.4122 12.4507 38.0675 10.779 38.0675C9.10736 38.0675 7.75223 39.4122 7.75223 41.071C7.75223 42.7298 9.10736 44.0745 10.779 44.0745Z" stroke="#3352FF" stroke-width="3" stroke-linecap="round" stroke-linejoin="round"/>
<path d="M68.8117 41.071H55.433" stroke="#3352FF" stroke-width="3" stroke-linecap="round" stroke-linejoin="round"/>
<path d="M71.8385 44.0745C73.5101 44.0745 74.8653 42.7298 74.8653 41.071C74.8653 39.4122 73.5101 38.0675 71.8385 38.0675C70.1668 38.0675 68.8117 39.4122 68.8117 41.071C68.8117 42.7298 70.1668 44.0745 71.8385 44.0745Z" stroke="#3352FF" stroke-width="3" stroke-linecap="round" stroke-linejoin="round"/>
</svg>
