<svg width="81" height="79" viewBox="0 0 81 79" fill="none" xmlns="http://www.w3.org/2000/svg">
<path d="M38.9601 60.6758C36.834 60.6758 35.1111 58.9806 35.1111 56.8887C35.1111 54.7968 36.834 53.1017 38.9601 53.1017C41.0861 53.1017 42.809 54.7968 42.809 56.8887C42.809 58.9806 41.0861 60.6758 38.9601 60.6758ZM45.3953 41.3625C42.2769 43.4232 41.8462 45.3095 41.8462 47.042C41.8462 48.5065 40.6407 49.6927 39.1522 49.6927C37.6637 49.6927 36.4581 48.5065 36.4581 47.042C36.4581 42.8935 38.3984 39.5946 42.3888 36.9585C46.0984 34.5092 48.1971 32.9554 48.1971 29.5423C48.1971 27.2218 46.85 25.4581 44.061 24.1536C43.4044 23.8461 41.9433 23.547 40.1466 23.5677C37.8917 23.5968 36.1393 24.1266 34.7902 25.1943C32.2461 27.2094 32.0307 29.401 32.0307 29.4342C31.9589 30.8988 30.6943 32.0268 29.2058 31.9582C27.7173 31.8897 26.5709 30.6433 26.6405 29.1787C26.6616 28.7196 26.9868 24.5732 31.4079 21.0749C33.7008 19.2614 36.6144 18.3182 40.0685 18.2767C42.5134 18.2476 44.8084 18.6548 46.3644 19.3777C51.0241 21.5465 53.583 25.1611 53.583 29.5423C53.583 35.9468 49.2316 38.8239 45.3932 41.3625H45.3953Z" fill="#3352FF"/>
<path d="M40.1149 75.824C60.5208 75.824 77.063 59.5477 77.063 39.47C77.063 19.3923 60.5208 3.11606 40.1149 3.11606C19.7091 3.11606 3.1669 19.3923 3.1669 39.47C3.1669 59.5477 19.7091 75.824 40.1149 75.824Z" stroke="#19CAE9" stroke-width="3" stroke-miterlimit="10"/>
</svg>
