<svg width="90" height="84" viewBox="0 0 90 84" fill="none" xmlns="http://www.w3.org/2000/svg">
<path d="M83.0961 6.30872H6.83994V77.4307H83.0961V6.30872Z" stroke="#19CAE9" stroke-width="3" stroke-miterlimit="10"/>
<path d="M44.968 6.30872V25.73H6.83994" stroke="#19CAE9" stroke-width="3" stroke-miterlimit="10"/>
<path d="M44.968 76.4582V54.412H32.462" stroke="#19CAE9" stroke-width="3" stroke-miterlimit="10"/>
<path d="M57.5645 76.4582V46.4464H83.0961" stroke="#19CAE9" stroke-width="3" stroke-miterlimit="10"/>
<path d="M51.8098 6.30872V36.4347H83.0961" stroke="#19CAE9" stroke-width="3" stroke-miterlimit="10"/>
<path d="M19.3459 54.412H6.8399" stroke="#19CAE9" stroke-width="3" stroke-miterlimit="10"/>
<path d="M36.1117 37.5214C33.9818 34.0794 30.1655 32.0251 25.904 32.0251C21.6425 32.0251 17.8262 34.0794 15.6963 37.5214C13.5664 40.9634 13.5664 45.0736 15.6963 48.5155L25.2514 63.9523C25.3862 64.169 25.6344 64.303 25.904 64.303C26.1735 64.303 26.4218 64.169 26.5566 63.9523L36.1117 48.5155C38.2433 45.0736 38.2433 40.9634 36.1117 37.5214V37.5214Z" stroke="#3352FF" stroke-width="3" stroke-miterlimit="10"/>
<path d="M25.904 47.763C29.2458 47.763 31.9548 45.2363 31.9548 42.1195C31.9548 39.0027 29.2458 36.4761 25.904 36.4761C22.5622 36.4761 19.8531 39.0027 19.8531 42.1195C19.8531 45.2363 22.5622 47.763 25.904 47.763Z" stroke="#3352FF" stroke-width="3" stroke-miterlimit="10"/>
</svg>
