<svg width="90" height="87" viewBox="0 0 90 87" fill="none" xmlns="http://www.w3.org/2000/svg">
<path d="M74.7926 48.3672V13.9104C74.7926 11.7086 72.9363 9.92319 70.6474 9.92319H9.10067C6.81169 9.92319 4.95547 11.7086 4.95547 13.9104V64.1954C4.95547 66.3971 6.81169 68.1826 9.10067 68.1826H54.0308" stroke="#19CAE9" stroke-width="3" stroke-miterlimit="10"/>
<path d="M8.24231 9.92319H71.5057C73.3208 9.92319 74.7926 11.3405 74.7926 13.0847V20.8767H4.95547V13.0847C4.95547 11.3388 6.42901 9.92319 8.24231 9.92319Z" stroke="#19CAE9" stroke-width="3" stroke-miterlimit="10"/>
<path d="M30.449 30.0104H67.7254" stroke="#19CAE9" stroke-width="3" stroke-linecap="round" stroke-linejoin="round"/>
<path d="M30.449 44.5761H55.4668" stroke="#19CAE9" stroke-width="3" stroke-linecap="round" stroke-linejoin="round"/>
<path d="M30.449 58.7221H48.1528" stroke="#19CAE9" stroke-width="3" stroke-linecap="round" stroke-linejoin="round"/>
<path d="M63.0472 71.2375C71.2742 71.2375 77.9435 64.8224 77.9435 56.9091C77.9435 48.9958 71.2742 42.5808 63.0472 42.5808C54.8203 42.5808 48.151 48.9958 48.151 56.9091C48.151 64.8224 54.8203 71.2375 63.0472 71.2375Z" stroke="#3352FF" stroke-width="3" stroke-miterlimit="10"/>
<path d="M74.0397 67.4808L85.7314 78.7267" stroke="#3352FF" stroke-width="3" stroke-linecap="round" stroke-linejoin="round"/>
<path d="M23.4533 25.588H14.2598V34.431H23.4533V25.588Z" stroke="#19CAE9" stroke-width="3" stroke-linecap="round" stroke-linejoin="round"/>
<path d="M23.4533 39.9439H14.2598V48.7869H23.4533V39.9439Z" stroke="#19CAE9" stroke-width="3" stroke-linecap="round" stroke-linejoin="round"/>
<path d="M23.4533 54.3015H14.2598V63.1445H23.4533V54.3015Z" stroke="#19CAE9" stroke-width="3" stroke-linecap="round" stroke-linejoin="round"/>
</svg>
