<?xml version="1.0" encoding="utf-8"?>
<!-- Generator: Adobe Illustrator 27.0.0, SVG Export Plug-In . SVG Version: 6.00 Build 0)  -->
<svg version="1.1" id="Layer_1" xmlns="http://www.w3.org/2000/svg" xmlns:xlink="http://www.w3.org/1999/xlink" x="0px" y="0px"
	 viewBox="0 0 30 30" style="enable-background:new 0 0 30 30;" xml:space="preserve">
<style type="text/css">
	.st0{fill:#58667E;}
</style>
<path class="st0" d="M20.2,10.8h-1V8.9c0-1.1-0.4-2.1-1.2-2.9c-0.8-0.8-1.8-1.2-2.9-1.2S12.9,5.2,12.1,6c-0.8,0.8-1.2,1.8-1.2,2.9
	v1.9h-1c-0.8,0-1.6,0.3-2.2,0.9c-0.6,0.6-0.9,1.4-0.9,2.2v8.2c0,0.8,0.3,1.6,0.9,2.2c0.6,0.6,1.4,0.9,2.2,0.9h10.3
	c0.8,0,1.6-0.3,2.2-0.9c0.6-0.6,0.9-1.4,0.9-2.2v-8.2c0-0.8-0.3-1.6-0.9-2.2C21.8,11.1,21,10.8,20.2,10.8L20.2,10.8z M12.9,8.9
	c0-0.6,0.2-1.1,0.6-1.5c0.4-0.4,0.9-0.6,1.5-0.7c0.6,0,1.1,0.3,1.5,0.7s0.6,1,0.6,1.5v1.9h-4.1L12.9,8.9L12.9,8.9z M21.2,22.2
	c0,0.3-0.1,0.5-0.3,0.7c-0.2,0.2-0.5,0.3-0.7,0.3H9.8c-0.3,0-0.5-0.1-0.7-0.3c-0.2-0.2-0.3-0.5-0.3-0.7v-8.2c0-0.3,0.1-0.5,0.3-0.7
	c0.2-0.2,0.5-0.3,0.7-0.3h10.3c0.3,0,0.5,0.1,0.7,0.3c0.2,0.2,0.3,0.5,0.3,0.7L21.2,22.2L21.2,22.2z"/>
<path class="st0" d="M15,14.9c-0.6,0-1.2,0.2-1.7,0.5c-0.5,0.3-0.9,0.8-1.1,1.4c-0.2,0.6-0.3,1.2-0.2,1.8c0.1,0.6,0.4,1.2,0.8,1.6
	c0.4,0.4,1,0.7,1.6,0.8c0.6,0.1,1.2,0.1,1.8-0.2c0.6-0.2,1-0.6,1.4-1.1c0.3-0.5,0.5-1.1,0.5-1.7c0-0.8-0.3-1.6-0.9-2.2
	C16.6,15.3,15.8,14.9,15,14.9L15,14.9z M15,19.1c-0.2,0-0.4-0.1-0.6-0.2c-0.2-0.1-0.3-0.3-0.4-0.5C14,18.2,13.9,18,14,17.8
	c0-0.2,0.1-0.4,0.3-0.5c0.1-0.1,0.3-0.2,0.5-0.3c0.2,0,0.4,0,0.6,0.1c0.2,0.1,0.3,0.2,0.5,0.4C16,17.6,16,17.8,16,18
	c0,0.3-0.1,0.5-0.3,0.7C15.5,19,15.3,19.1,15,19.1z"/>
</svg>
