<svg width="96" height="95" viewBox="0 0 96 95" fill="none" xmlns="http://www.w3.org/2000/svg">
<path d="M52.4643 46.2745V40.8348L47.9081 39.748C47.4407 37.5649 46.5781 35.5338 45.402 33.7193L47.8606 29.7198L44.0131 25.8723L40.0136 28.3309C38.1991 27.1567 36.168 26.2922 33.9849 25.8248L32.8981 21.2686H27.4584L26.3716 25.8248C24.1885 26.2922 22.1574 27.1548 20.3429 28.3309L16.3434 25.8723L12.4959 29.7198L14.9545 33.7193C13.7803 35.5338 12.9158 37.5649 12.4484 39.748L7.89222 40.8348V46.2745L12.4484 47.3613C12.9158 49.5444 13.7784 51.5755 14.9545 53.39L12.4959 57.3895L16.3434 61.2351L20.3429 58.7765C22.1574 59.9507 24.1885 60.8152 26.3716 61.2826L27.4584 65.8388H32.8981L33.9849 61.2826C36.168 60.8152 38.1991 59.9526 40.0136 58.7784L44.0131 61.237L47.8606 57.3914L45.402 53.3919C46.5762 51.5774 47.4407 49.5463 47.9081 47.3632L52.4643 46.2764V46.2745Z" stroke="#19CAE9" stroke-width="3" stroke-linecap="round" stroke-linejoin="round"/>
<path d="M30.1792 55.6738C36.873 55.6738 42.2993 50.2474 42.2993 43.5537C42.2993 36.8599 36.873 31.4336 30.1792 31.4336C23.4855 31.4336 18.0591 36.8599 18.0591 43.5537C18.0591 50.2474 23.4855 55.6738 30.1792 55.6738Z" stroke="#19CAE9" stroke-width="3" stroke-linecap="round" stroke-linejoin="round"/>
<path d="M30.1792 50.4488C33.9873 50.4488 37.0743 47.3618 37.0743 43.5537C37.0743 39.7457 33.9873 36.6586 30.1792 36.6586C26.3712 36.6586 23.2841 39.7457 23.2841 43.5537C23.2841 47.3618 26.3712 50.4488 30.1792 50.4488Z" stroke="#19CAE9" stroke-width="3" stroke-linecap="round" stroke-linejoin="round"/>
<path d="M64.7763 14.2215H61.2062C59.4943 14.2215 58.094 16.2773 58.094 18.791V68.3164C58.094 70.8301 59.4943 72.8859 61.2062 72.8859H64.7763" stroke="#19CAE9" stroke-width="3" stroke-linecap="round" stroke-linejoin="round"/>
<path d="M52.4643 43.5537H64.7763" stroke="#19CAE9" stroke-width="3" stroke-linecap="round" stroke-linejoin="round"/>
<path d="M84.6237 2.70367H67.9645C66.2037 2.70367 64.7763 4.13108 64.7763 5.89187V22.5511C64.7763 24.3119 66.2037 25.7393 67.9645 25.7393H84.6237C86.3845 25.7393 87.8119 24.3119 87.8119 22.5511V5.89187C87.8119 4.13108 86.3845 2.70367 84.6237 2.70367Z" stroke="#3352FF" stroke-width="3" stroke-linecap="round" stroke-linejoin="round"/>
<path d="M71.7341 15.3007C71.9431 15.3007 74.9356 18.0842 74.9356 18.0842L80.8503 9.80206" stroke="#3352FF" stroke-width="3" stroke-linecap="round" stroke-linejoin="round"/>
<path d="M84.6237 32.0378H67.9645C66.2037 32.0378 64.7763 33.4652 64.7763 35.226V51.8852C64.7763 53.646 66.2037 55.0734 67.9645 55.0734H84.6237C86.3845 55.0734 87.8119 53.646 87.8119 51.8852V35.226C87.8119 33.4652 86.3845 32.0378 84.6237 32.0378Z" stroke="#3352FF" stroke-width="3" stroke-linecap="round" stroke-linejoin="round"/>
<path d="M71.7341 44.6329C71.9431 44.6329 74.9356 47.4164 74.9356 47.4164L80.8503 39.1343" stroke="#3352FF" stroke-width="3" stroke-linecap="round" stroke-linejoin="round"/>
<path d="M84.6237 61.37H67.9645C66.2037 61.37 64.7763 62.7974 64.7763 64.5582V81.2174C64.7763 82.9782 66.2037 84.4056 67.9645 84.4056H84.6237C86.3845 84.4056 87.8119 82.9782 87.8119 81.2174V64.5582C87.8119 62.7974 86.3845 61.37 84.6237 61.37Z" stroke="#3352FF" stroke-width="3" stroke-linecap="round" stroke-linejoin="round"/>
<path d="M71.7341 73.9651C71.9431 73.9651 74.9356 76.7486 74.9356 76.7486L80.8503 68.4665" stroke="#3352FF" stroke-width="3" stroke-linecap="round" stroke-linejoin="round"/>
</svg>
