<svg width="75" height="73" viewBox="0 0 75 73" fill="none" xmlns="http://www.w3.org/2000/svg">
<g clip-path="url(#clip0_30_384)">
<path d="M32.2249 28.9599C39.9278 28.9599 46.1722 22.972 46.1722 15.5856C46.1722 8.19919 39.9278 2.2113 32.2249 2.2113C24.5221 2.2113 18.2777 8.19919 18.2777 15.5856C18.2777 22.972 24.5221 28.9599 32.2249 28.9599Z" stroke="#3352FF" stroke-width="3" stroke-miterlimit="10"/>
<path d="M50.1337 36.6463H15.5472C8.08734 36.6463 2.03992 42.4453 2.03992 49.5987V62.3772H38.0775" stroke="#3352FF" stroke-width="3" stroke-miterlimit="10"/>
<path d="M67.8514 52.2965C67.8514 51.3973 67.755 50.522 67.5794 49.6727L72.5095 47.0859L68.768 40.5283L63.9652 43.0485C62.325 41.4091 60.2584 40.1656 57.9313 39.494V34.3685H50.1356V39.4292C47.7468 40.0713 45.6145 41.3018 43.93 42.9578L39.2989 40.5265L35.5574 47.0841L40.256 49.5506C40.063 50.4369 39.9588 51.3547 39.9588 52.2965C39.9588 53.379 40.1074 54.4281 40.3621 55.4366L35.5574 57.9586L39.2989 64.5162L44.2368 61.9239C45.8712 63.4338 47.8876 64.5588 50.1356 65.1638V70.6742H57.9313V65.0991C60.1195 64.4663 62.08 63.3338 63.67 61.8388L68.768 64.5144L72.5095 57.9567L67.481 55.3181C67.7164 54.3449 67.8514 53.3364 67.8514 52.2965V52.2965Z" stroke="#19CAE9" stroke-width="3" stroke-linecap="round" stroke-linejoin="round"/>
<path d="M54.0315 58.3416C57.3831 58.3416 60.1002 55.7362 60.1002 52.5223C60.1002 49.3083 57.3831 46.7029 54.0315 46.7029C50.6799 46.7029 47.9629 49.3083 47.9629 52.5223C47.9629 55.7362 50.6799 58.3416 54.0315 58.3416Z" stroke="#19CAE9" stroke-width="3" stroke-linecap="round" stroke-linejoin="round"/>
</g>
<defs>
<clipPath id="clip0_30_384">
<rect width="74.43" height="72.59" fill="white"/>
</clipPath>
</defs>
</svg>
