<?xml version="1.0" encoding="utf-8"?>
<!-- Generator: Adobe Illustrator 27.0.0, SVG Export Plug-In . SVG Version: 6.00 Build 0)  -->
<svg version="1.1" id="Layer_1" xmlns="http://www.w3.org/2000/svg" xmlns:xlink="http://www.w3.org/1999/xlink" x="0px" y="0px"
	 viewBox="0 0 172.9 22.7" style="enable-background:new 0 0 172.9 22.7;" xml:space="preserve">
<style type="text/css">
	.st0{fill:#6BC0EC;}
	.st1{fill:#303586;}
	
		.st2{clip-path:url(#SVGID_00000121977691502086645450000007714215468752754873_);fill:url(#SVGID_00000050624276316925400330000009235713885382154683_);}
	
		.st3{clip-path:url(#SVGID_00000021103313276662108420000006634158592918205056_);fill:url(#SVGID_00000029757866577272349220000002902400924407401902_);}
	
		.st4{clip-path:url(#SVGID_00000060715550987445185310000013708944288991202225_);fill:url(#SVGID_00000136371978367115702400000013423890005464492680_);}
	
		.st5{clip-path:url(#SVGID_00000163791223740348089000000002844605703201618578_);fill:url(#SVGID_00000072268516039605416550000008056177567748927899_);}
	.st6{fill:#3C3C3B;}
</style>
<g>
	<g>
		<polygon class="st0" points="11.5,10.2 18.9,14.3 22,12.5 11.5,6.7 		"/>
		<polygon class="st0" points="11.5,4.4 18.9,8.4 22,6.7 11.5,0.8 		"/>
		<polygon class="st1" points="4.2,8.4 1,10.2 11.5,16 11.5,12.5 		"/>
		<polygon class="st1" points="4.2,14.3 1,16 11.5,21.9 11.5,18.3 		"/>
		<g>
			<defs>
				<polygon id="SVGID_1_" points="1,6.7 1,10.2 4.2,8.4 11.5,4.3 11.5,0.9 				"/>
			</defs>
			<clipPath id="SVGID_00000001663095785744247220000009548606796869819777_">
				<use xlink:href="#SVGID_1_"  style="overflow:visible;"/>
			</clipPath>
			
				<linearGradient id="SVGID_00000175291160801856923600000013838627930433611937_" gradientUnits="userSpaceOnUse" x1="-497.5842" y1="404.5503" x2="-496.9107" y2="404.5503" gradientTransform="matrix(-17.6937 10.2155 10.2155 17.6937 -12924.5479 -2072.8635)">
				<stop  offset="0" style="stop-color:#6BC0EC"/>
				<stop  offset="0.5" style="stop-color:#2160A9"/>
				<stop  offset="1" style="stop-color:#303586"/>
				<stop  offset="1" style="stop-color:#303586"/>
			</linearGradient>
			
				<polygon style="clip-path:url(#SVGID_00000001663095785744247220000009548606796869819777_);fill:url(#SVGID_00000175291160801856923600000013838627930433611937_);" points="
				15.6,7.8 3.6,14.7 -3,3.2 8.9,-3.7 			"/>
		</g>
		<g>
			<defs>
				<polygon id="SVGID_00000123432110699631328160000017213601189924784292_" points="11.5,18.3 11.5,21.8 22,16 22,12.5 				"/>
			</defs>
			<clipPath id="SVGID_00000091709376825940150030000012297271536361084587_">
				<use xlink:href="#SVGID_00000123432110699631328160000017213601189924784292_"  style="overflow:visible;"/>
			</clipPath>
			
				<linearGradient id="SVGID_00000170236485689352870390000015794415831951107463_" gradientUnits="userSpaceOnUse" x1="-497.5068" y1="404.186" x2="-496.8333" y2="404.186" gradientTransform="matrix(-17.6937 10.2155 10.2155 17.6937 -12908.9766 -2055.5439)">
				<stop  offset="0" style="stop-color:#6BC0EC"/>
				<stop  offset="0.5" style="stop-color:#2160A9"/>
				<stop  offset="1" style="stop-color:#303586"/>
				<stop  offset="1" style="stop-color:#303586"/>
			</linearGradient>
			
				<polygon style="clip-path:url(#SVGID_00000091709376825940150030000012297271536361084587_);fill:url(#SVGID_00000170236485689352870390000015794415831951107463_);" points="
				26.1,19.5 14.1,26.4 7.5,14.9 19.4,8 			"/>
		</g>
		<g>
			<defs>
				<polygon id="SVGID_00000025433757458832040540000013854726461289935264_" points="11.5,12.5 11.5,16 22,10.2 22,6.7 				"/>
			</defs>
			<clipPath id="SVGID_00000008126225492005906330000002634119796330768316_">
				<use xlink:href="#SVGID_00000025433757458832040540000013854726461289935264_"  style="overflow:visible;"/>
			</clipPath>
			
				<linearGradient id="SVGID_00000174601345235425324760000018174770142944329388_" gradientUnits="userSpaceOnUse" x1="-497.4376" y1="404.3059" x2="-496.7641" y2="404.3059" gradientTransform="matrix(-17.6937 10.2155 10.2155 17.6937 -12908.9805 -2064.2065)">
				<stop  offset="0" style="stop-color:#6BC0EC"/>
				<stop  offset="0.5" style="stop-color:#2160A9"/>
				<stop  offset="1" style="stop-color:#303586"/>
				<stop  offset="1" style="stop-color:#303586"/>
			</linearGradient>
			
				<polygon style="clip-path:url(#SVGID_00000008126225492005906330000002634119796330768316_);fill:url(#SVGID_00000174601345235425324760000018174770142944329388_);" points="
				26.1,13.7 14.1,20.6 7.5,9 19.4,2.1 			"/>
		</g>
		<g>
			<defs>
				<polygon id="SVGID_00000172419638498727554110000003768014151452046478_" points="6.3,9.6 3.1,11.4 1,12.5 1,16 4.2,14.3 
					6.3,13.1 9.4,11.4 11.5,10.2 11.5,6.7 				"/>
			</defs>
			<clipPath id="SVGID_00000114789668410065457130000014867258091369428371_">
				<use xlink:href="#SVGID_00000172419638498727554110000003768014151452046478_"  style="overflow:visible;"/>
			</clipPath>
			
				<linearGradient id="SVGID_00000088827297697050664460000017570367603482641537_" gradientUnits="userSpaceOnUse" x1="-497.6534" y1="404.4305" x2="-496.9799" y2="404.4305" gradientTransform="matrix(-17.6937 10.2155 10.2155 17.6937 -12924.5479 -2064.2019)">
				<stop  offset="0" style="stop-color:#6BC0EC"/>
				<stop  offset="0.5" style="stop-color:#2160A9"/>
				<stop  offset="1" style="stop-color:#303586"/>
				<stop  offset="1" style="stop-color:#303586"/>
			</linearGradient>
			
				<polygon style="clip-path:url(#SVGID_00000114789668410065457130000014867258091369428371_);fill:url(#SVGID_00000088827297697050664460000017570367603482641537_);" points="
				15.6,13.7 3.6,20.6 -3,9 8.9,2.1 			"/>
		</g>
	</g>
	<g>
		<path class="st6" d="M26.2,5h10.4v2.2h-3.9v10.5h-1.4c-0.7,0-1.2-0.6-1.2-1.2V7.2h-3.9V5z"/>
		<polygon class="st6" points="38.2,5 40.9,5 40.9,10.3 46.4,10.3 46.4,5 49,5 49,17.7 46.4,17.7 46.4,12.4 40.9,12.4 40.9,17.7 
			38.2,17.7 		"/>
		<path class="st6" d="M55.8,5h5c2.9,0,4.5,1.6,4.5,4.1c0,1.7-0.8,3-2.2,3.6l2.7,4.9h-2.9l-2.4-4.5h-2v4.5h-2.6V5z M60.2,11.1
			c1.6,0,2.3-0.6,2.3-1.9c0-1.3-0.8-2-2.3-2h-1.9v3.9H60.2z"/>
		<path class="st6" d="M66.4,17.7L70.8,5h3.4l4.4,12.7h-2.8l-1-2.9h-4.6l-1,2.9H66.4z M74.1,12.7l-1.6-4.9h-0.1l-1.6,4.9H74.1z"/>
		<path class="st6" d="M83.4,5h5c2.9,0,4.5,1.6,4.5,4.1c0,1.7-0.8,3-2.2,3.6l2.7,4.9h-2.9L88,13.2h-2v4.5h-1.4
			c-0.7,0-1.2-0.6-1.2-1.2V5z M87.9,11.1c1.6,0,2.3-0.6,2.3-1.9c0-1.3-0.8-2-2.3-2H86v3.9H87.9z"/>
		<path class="st6" d="M100.4,17.7c-3.3,0-5.8-2.3-5.8-6.3c0-4,2.5-6.3,5.8-6.3c3.3,0,5.8,2.3,5.8,6.3
			C106.2,15.4,103.7,17.7,100.4,17.7 M100.4,15.4c1.9,0,3.2-1.4,3.2-4.1c0-2.6-1.3-4.1-3.2-4.1c-1.9,0-3.2,1.4-3.2,4.1
			C97.2,14,98.5,15.4,100.4,15.4"/>
		<path class="st6" d="M108.1,5h5c2.8,0,4.2,1.3,4.2,3.3c0,1.5-1,2.4-2.3,2.7v0.1c1.4,0.1,2.8,1.2,2.8,3.1c0,2-1.5,3.5-4.4,3.5h-5.4
			V5z M112.8,10.3c1.1,0,1.9-0.6,1.9-1.6c0-0.9-0.7-1.5-1.9-1.5h-2.1v3.2H112.8z M113,15.5c1.5,0,2.2-0.6,2.2-1.6
			c0-1.1-0.8-1.8-2.1-1.8h-2.3v3.4H113z"/>
		<path class="st6" d="M125,17.7c-3.3,0-5.8-2.3-5.8-6.3c0-4,2.5-6.3,5.8-6.3c3.3,0,5.8,2.3,5.8,6.3C130.7,15.4,128.2,17.7,125,17.7
			 M125,15.4c1.9,0,3.2-1.4,3.2-4.1c0-2.6-1.3-4.1-3.2-4.1c-1.9,0-3.2,1.4-3.2,4.1C121.8,14,123,15.4,125,15.4"/>
		<path class="st6" d="M131.6,5H142v2.2h-3.9v10.5h-1.4c-0.7,0-1.2-0.6-1.2-1.2V7.2h-3.9V5z"/>
		<rect x="143.7" y="5" class="st6" width="2.6" height="12.7"/>
		<path class="st6" d="M154.1,7.3c-1.9,0-3.2,1.5-3.2,4.1c0,2.7,1.3,4.1,3.2,4.1c1.4,0,2.5-0.8,2.7-2.1l2.6,0
			c-0.3,2.3-2.2,4.4-5.3,4.4c-3.3,0-5.7-2.3-5.7-6.3c0-4,2.5-6.3,5.7-6.3c2.8,0,5,1.6,5.3,4.5h-2.6C156.6,8.1,155.5,7.3,154.1,7.3"
			/>
		<path class="st6" d="M166,7.2c-1.3,0-2,0.6-2,1.4c0,0.9,0.9,1.3,2,1.5l1.1,0.3c2.1,0.5,3.7,1.6,3.7,3.6c0,2.3-1.8,3.7-4.8,3.7
			c-3,0-4.9-1.4-5-4h2.5c0.1,1.2,1.1,1.9,2.4,1.9c1.3,0,2.2-0.6,2.2-1.6c0-0.8-0.8-1.2-2.1-1.6l-1.3-0.3c-2.1-0.5-3.4-1.6-3.4-3.4
			c0-2.2,2-3.7,4.7-3.7c2.7,0,4.5,1.5,4.6,3.7h-2.5C168.1,7.7,167.3,7.2,166,7.2"/>
		<rect x="51.1" y="8.5" class="st6" width="2.6" height="9.2"/>
		<path class="st6" d="M53.7,6.3c0,0.7-0.6,1.3-1.3,1.3c-0.7,0-1.3-0.6-1.3-1.3c0-0.7,0.6-1.3,1.3-1.3C53.1,5,53.7,5.6,53.7,6.3"/>
	</g>
</g>
</svg>
