<?xml version="1.0" encoding="UTF-8"?><svg id="Layer_1" xmlns="http://www.w3.org/2000/svg" viewBox="0 0 50 50"><defs><style>.cls-1{fill:none;stroke:#455560;stroke-linecap:round;stroke-linejoin:round;stroke-width:2.5px;}</style></defs><path class="cls-1" d="M33.773,33.041c.268,0,.532-.078,.764-.225,.232-.147,.424-.358,.558-.612s.203-.542,.202-.835c-.001-.293-.073-.58-.208-.833h0c-.66-1.241-1.448-3.589-1.448-7.728v-.845c0-5.14-3.775-9.352-8.416-9.389-.022,0-.043,0-.065,0-2.252,.003-4.41,.983-6.001,2.724-1.59,1.741-2.482,4.1-2.479,6.558v.952c0,4.139-.788,6.487-1.448,7.728-.135,.253-.207,.54-.208,.833-.001,.293,.069,.581,.202,.835,.133,.254,.326,.465,.558,.612,.232,.147,.495,.225,.764,.225h17.225Z"/><path class="cls-1" d="M21.051,33.041v.216c0,1.09,.433,2.135,1.203,2.905,.771,.771,1.816,1.203,2.905,1.203s2.135-.433,2.905-1.203c.771-.771,1.203-1.816,1.203-2.905v-.216h-8.217Z"/></svg>