<svg width="25" height="25" viewBox="0 0 25 25" fill="none" xmlns="http://www.w3.org/2000/svg">
<g clip-path="url(#clip0_152_371)">
<g clip-path="url(#clip1_152_371)">
<path d="M18.5449 5.01895H17.6599V3.84881C17.6599 3.3805 17.2794 3 16.8111 3H4.84943C4.38112 3 4 3.3805 4 3.84881V19.4536C4 19.9219 4.38112 20.303 4.84943 20.303H5.93114V21.1506C5.93114 21.6189 6.31226 22 6.78057 22H18.5449C19.0132 22 19.3937 21.6189 19.3937 21.1506V5.86774C19.3937 5.39943 19.0132 5.01893 18.5449 5.01893V5.01895ZM5.02005 19.283V4.02005H16.6399V19.283H5.02005ZM18.3736 20.9799H6.95119V20.303H16.8111C17.2794 20.303 17.6599 19.9219 17.6599 19.4536V6.039H18.3736V20.9799V20.9799Z" fill="#FFD337"/>
<path d="M6.07063 8.64955H8.4925C8.77398 8.64955 9.00253 8.421 9.00253 8.13952V5.71828C9.00253 5.4368 8.77398 5.20825 8.4925 5.20825H6.07063C5.78916 5.20825 5.56061 5.4368 5.56061 5.71828V8.13952C5.56061 8.421 5.78916 8.64955 6.07063 8.64955ZM6.58066 6.22831H7.98246V7.62948H6.58066V6.22831Z" fill="#FFD337"/>
<path d="M10.0562 6.22831H15.3066C15.5881 6.22831 15.8166 5.99976 15.8166 5.71828C15.8166 5.4368 15.5881 5.20825 15.3066 5.20825H10.0562C9.77475 5.20825 9.5462 5.4368 9.5462 5.71828C9.5462 5.99976 9.77475 6.22831 10.0562 6.22831Z" fill="#FFD337"/>
<path d="M10.0562 8.64957H15.3066C15.5881 8.64957 15.8166 8.42102 15.8166 8.13954C15.8166 7.85807 15.5881 7.62952 15.3066 7.62952H10.0562C9.77475 7.62952 9.5462 7.85807 9.5462 8.13954C9.5462 8.42102 9.77475 8.64957 10.0562 8.64957Z" fill="#FFD337"/>
<path d="M6.07063 11.0714H15.3066C15.5881 11.0714 15.8166 10.8429 15.8166 10.5614C15.8166 10.2799 15.5881 10.0514 15.3066 10.0514H6.07063C5.78916 10.0514 5.56061 10.2799 5.56061 10.5614C5.56061 10.8429 5.78916 11.0714 6.07063 11.0714Z" fill="#FFD337"/>
<path d="M6.07063 13.4933H15.3066C15.5881 13.4933 15.8166 13.2647 15.8166 12.9832C15.8166 12.7018 15.5881 12.4732 15.3066 12.4732H6.07063C5.78916 12.4732 5.56061 12.7018 5.56061 12.9832C5.56061 13.2647 5.78916 13.4933 6.07063 13.4933Z" fill="#FFD337"/>
<path d="M6.07063 15.9151H15.3066C15.5881 15.9151 15.8166 15.6866 15.8166 15.4051C15.8166 15.1236 15.5881 14.8951 15.3066 14.8951H6.07063C5.78916 14.8951 5.56061 15.1236 5.56061 15.4051C5.56061 15.6866 5.78916 15.9151 6.07063 15.9151Z" fill="#FFD337"/>
<path d="M11.8815 17.8264C11.8815 17.5449 11.6529 17.3163 11.3715 17.3163H6.07063C5.78916 17.3163 5.56061 17.5449 5.56061 17.8264C5.56061 18.1078 5.78916 18.3364 6.07063 18.3364H11.3715C11.6529 18.3364 11.8815 18.1078 11.8815 17.8264H11.8815Z" fill="#FFD337"/>
</g>
</g>
<defs>
<clipPath id="clip0_152_371">
<rect width="25" height="25" fill="white"/>
</clipPath>
<clipPath id="clip1_152_371">
<rect width="15.3937" height="19" fill="white" transform="translate(4 3)"/>
</clipPath>
</defs>
</svg>
