<svg width="25" height="25" viewBox="0 0 25 25" fill="none" xmlns="http://www.w3.org/2000/svg">
<g clip-path="url(#clip0_152_347)">
<g clip-path="url(#clip1_152_347)">
<path d="M18.5139 10.9593V5.70397C18.5139 5.26241 18.1552 4.90364 17.7136 4.90364H16.8792V3.80033C16.8792 3.35877 16.5205 3 16.0789 3H4.80033C4.35877 3 4 3.35877 4 3.80033V18.5139C4 18.9555 4.35877 19.3148 4.80033 19.3148H5.82085V20.114C5.82085 20.5555 6.17962 20.9149 6.62118 20.9149H12.2878C13.2485 21.5933 14.4136 22 15.6767 22C18.9303 22 21.5767 19.3536 21.5767 16.1C21.5767 13.8801 20.3302 11.9662 18.5139 10.9593V10.9593ZM16.8792 5.86544H17.5521V10.534C17.33 10.4588 17.1123 10.3732 16.8792 10.3247V5.86544ZM4.9618 18.353V3.9618H15.9174V10.2244C15.8358 10.221 15.7591 10.2 15.6767 10.2C12.4231 10.2 9.77669 12.8464 9.77669 16.1C9.77669 16.8981 9.9397 17.6581 10.2281 18.353H4.9618V18.353ZM6.78265 19.9531V19.3148H10.7412C10.8903 19.543 11.0666 19.7482 11.2449 19.9531H6.78265ZM15.6767 21.0382C12.9539 21.0382 10.7385 18.8228 10.7385 16.1C10.7385 13.3772 12.9539 11.1618 15.6767 11.1618C18.3994 11.1618 20.6149 13.3772 20.6149 16.1C20.6149 18.8228 18.3994 21.0382 15.6767 21.0382Z" fill="#009EF7"/>
<path d="M18.0471 14.066L15.1617 17.1376L13.6515 15.8235C13.4524 15.6491 13.1471 15.6696 12.9727 15.8704C12.7983 16.0712 12.8195 16.3748 13.0197 16.5492L14.8793 18.1675C14.9703 18.2468 15.083 18.2855 15.1952 18.2855C15.3232 18.2855 15.4512 18.2344 15.5457 18.134L18.7482 14.7248C18.9303 14.5311 18.9209 14.2269 18.7271 14.0449C18.5333 13.8623 18.2286 13.8711 18.0471 14.066L18.0471 14.066Z" fill="#009EF7"/>
<path d="M5.95178 8.32691H8.23534C8.50074 8.32691 8.71624 8.11142 8.71624 7.84601V5.56305C8.71624 5.29765 8.50074 5.08215 8.23534 5.08215H5.95178C5.68638 5.08215 5.47089 5.29765 5.47089 5.56305V7.84601C5.47089 8.11142 5.68638 8.32691 5.95178 8.32691ZM6.43268 6.04395H7.75443V7.3651H6.43268V6.04395Z" fill="#009EF7"/>
<path d="M9.70978 6.04395H14.6609C14.9263 6.04395 15.1418 5.82845 15.1418 5.56305C15.1418 5.29765 14.9263 5.08215 14.6609 5.08215H9.70978C9.44438 5.08215 9.22888 5.29765 9.22888 5.56305C9.22888 5.82845 9.44438 6.04395 9.70978 6.04395Z" fill="#009EF7"/>
<path d="M9.70978 8.32691H14.6609C14.9263 8.32691 15.1418 8.11141 15.1418 7.84601C15.1418 7.58061 14.9263 7.36511 14.6609 7.36511H9.70978C9.44438 7.36511 9.22888 7.58061 9.22888 7.84601C9.22888 8.11141 9.44438 8.32691 9.70978 8.32691Z" fill="#009EF7"/>
<path d="M5.95178 10.6105H12.2117C12.4771 10.6105 12.6926 10.395 12.6926 10.1296C12.6926 9.86418 12.4771 9.64868 12.2117 9.64868H5.95178C5.68638 9.64868 5.47089 9.86418 5.47089 10.1296C5.47089 10.395 5.68638 10.6105 5.95178 10.6105Z" fill="#009EF7"/>
<path d="M9.24586 11.9322H5.95178C5.68638 11.9322 5.47089 12.1477 5.47089 12.4131C5.47089 12.6785 5.68638 12.894 5.95178 12.894H9.24587C9.51128 12.894 9.72677 12.6785 9.72677 12.4131C9.72677 12.1477 9.51128 11.9322 9.24587 11.9322H9.24586Z" fill="#009EF7"/>
<path d="M9.24586 14.2158H5.95178C5.68638 14.2158 5.47089 14.4313 5.47089 14.6967C5.47089 14.9621 5.68638 15.1776 5.95178 15.1776H9.24587C9.51128 15.1776 9.72677 14.9621 9.72677 14.6967C9.72677 14.4313 9.51128 14.2158 9.24587 14.2158H9.24586Z" fill="#009EF7"/>
<path d="M8.31989 16.4987H5.95178C5.68638 16.4987 5.47089 16.7142 5.47089 16.9796C5.47089 17.245 5.68638 17.4605 5.95178 17.4605H8.31989C8.58529 17.4605 8.80079 17.245 8.80079 16.9796C8.80079 16.7142 8.58529 16.4987 8.31989 16.4987Z" fill="#009EF7"/>
</g>
</g>
<defs>
<clipPath id="clip0_152_347">
<rect width="25" height="25" fill="white"/>
</clipPath>
<clipPath id="clip1_152_347">
<rect width="17.5767" height="19" fill="white" transform="translate(4 3)"/>
</clipPath>
</defs>
</svg>
