<?xml version="1.0" encoding="utf-8"?>
<!-- Generator: Adobe Illustrator 27.0.0, SVG Export Plug-In . SVG Version: 6.00 Build 0)  -->
<svg version="1.1" id="Capa_1" xmlns="http://www.w3.org/2000/svg" xmlns:xlink="http://www.w3.org/1999/xlink" x="0px" y="0px"
	 viewBox="0 0 26 30" style="enable-background:new 0 0 26 30;" xml:space="preserve">
<style type="text/css">
	.st0{fill:#1A2841;}
</style>
<path class="st0" d="M14.643,15.217l5.012-4.764c0.219-0.209,0.343-0.493,0.343-0.788c0-0.296-0.123-0.579-0.343-0.788
	c-0.219-0.209-0.517-0.327-0.827-0.327S18.22,8.667,18,8.876l-5,4.775L8,8.876C7.78,8.667,7.483,8.549,7.172,8.549
	c-0.31,0-0.608,0.117-0.828,0.327C6.125,9.085,6.002,9.369,6.002,9.664c0,0.296,0.123,0.579,0.343,0.788l5.012,4.764L6.345,19.98
	c-0.109,0.103-0.196,0.226-0.255,0.361C6.03,20.477,6,20.622,6,20.769c0,0.147,0.03,0.292,0.09,0.427
	c0.059,0.135,0.146,0.258,0.255,0.361c0.108,0.104,0.237,0.187,0.379,0.243c0.142,0.056,0.294,0.085,0.448,0.085
	c0.154,0,0.306-0.029,0.448-0.085C7.763,21.744,7.891,21.661,8,21.557l5-4.775l5,4.775c0.108,0.104,0.237,0.187,0.379,0.243
	c0.142,0.056,0.294,0.085,0.448,0.085c0.154,0,0.306-0.029,0.448-0.085c0.142-0.056,0.271-0.139,0.379-0.243
	c0.109-0.103,0.196-0.226,0.255-0.361C19.97,21.061,20,20.915,20,20.769c0-0.147-0.03-0.292-0.09-0.427
	c-0.059-0.135-0.146-0.258-0.255-0.361L14.643,15.217z"/>
</svg>
